<?xml version="1.0" encoding="utf-8"?>
<!-- Generator: Adobe Illustrator 26.5.0, SVG Export Plug-In . SVG Version: 6.00 Build 0)  -->
<svg version="1.1" id="Layer_1" xmlns="http://www.w3.org/2000/svg" xmlns:xlink="http://www.w3.org/1999/xlink" x="0px" y="0px"
	 viewBox="0 0 24 24" style="enable-background:new 0 0 24 24;" xml:space="preserve">
<style type="text/css">
	.st0{fill-rule:evenodd;clip-rule:evenodd;fill:#FAFAFA;}
</style>
<g id="Layer_2_00000010271049121737913120000017875246078970154669_">
	<circle cx="12" cy="12" r="12"/>
</g>
<path class="st0" d="M13.1,6.6c1.2-0.7,3.1-1.4,4.7,0.2c3.9,3.9-2.8,11.4-5.8,11.4c-3.1,0-9.7-7.5-5.8-11.4c1.6-1.6,3.5-1,4.7-0.2
	C11.5,7,12.5,7,13.1,6.6z M15.7,8.9c0.3,0.3,0.6,0.7,0.7,1.1c0.1,0.3,0.4,0.4,0.7,0.3c0.3-0.1,0.4-0.4,0.3-0.6
	c-0.2-0.5-0.5-1.1-0.9-1.5c-0.4-0.4-0.7-0.6-1.2-0.7c-0.3-0.1-0.6,0-0.7,0.3c-0.1,0.3,0,0.6,0.3,0.7C15.2,8.4,15.5,8.6,15.7,8.9z"/>
</svg>
