<svg width="59" height="59" viewBox="0 0 59 59" fill="none" xmlns="http://www.w3.org/2000/svg">
  <circle cx="29.5" cy="29.5" r="29.5" fill="black"/>
  <path d="M20.5389 17.7462C26.9389 14.1461 32.5389 10.7461 35.5389 9.24612C38.0389 7.74612 39.1549 13.4374 37.0389 17.2462C34.923 21.0549 29.0389 23.2462 29.0389 23.2462C29.0389 23.2462 42.0389 20.2462 42.5389 31.7462C42.6694 34.7462 40.5389 38.2462 39.0389 39.2462C37.5389 40.2462 24.5389 47.9961 23.0389 48.7461C21.2807 49.6253 20.5389 47.2461 20.5389 44.2461C20.5389 37.2461 28.5389 34.7462 28.5389 34.7462C21.5389 35.7462 17.0389 33.2462 16.0389 25.7462C15.7056 23.2462 17.5389 19.4337 20.5389 17.7462Z" fill="white"/>
  </svg>